<svg width="508" height="378" viewBox="0 0 508 378" fill="none" xmlns="http://www.w3.org/2000/svg">
<path d="M489.195 0.00976562L478.326 0.000976562C478.258 0.000704732 478.19 0.000735575 478.122 0.000976562L476.815 0C476.713 0.0126581 476.611 0.0278273 476.507 0.0419922C473.872 0.152814 471.079 0.420509 469.619 0.00292969H469.551C453.374 0.0465931 442.566 2.03184 446.056 4.21387C450.151 6.78872 460.959 5.58928 468.88 6.06934C469.945 6.13377 470.937 6.16601 471.861 6.17383C473.011 6.73928 474.705 7.03723 476.843 7.11133L477.543 7.05273L478.2 7.19922C479.375 7.26308 480.526 7.34845 481.702 7.43359C486.081 7.75069 485.265 7.89589 489.094 8.36426C491.869 8.7014 491.902 9.80353 491.902 9.82617V11.2822C491.119 11.6648 492.685 11.4328 491.902 11.8154C489.823 11.9431 491.173 12.4768 489.094 12.6045C485.417 12.9876 481.704 13.6936 478.027 13.6943C474.016 13.6943 471.206 15.3541 467.256 16.5039C471.629 19.5694 477.12 18.6989 481.854 19.2949C485.985 19.8054 490.361 19.4658 494.612 19.4658H494.62C496.908 19.4658 499.259 19.4657 500.855 20.8047C501.759 21.5496 502.838 22.6582 502.689 23.4883C502.447 24.8503 500.339 24.4709 498.952 24.4707H475.396C477.326 28.8131 481.162 29.706 485.565 29.8125C489.816 29.8975 494.101 29.704 498.322 29.8955C499.709 29.958 501.821 29.3056 502.454 31.2832C503.235 33.6649 499.834 33.3929 498.896 34.582C496.545 37.5407 498.649 33.0973 497.235 34.0938C496.752 34.4552 495.275 34.033 494.521 34.3086C489.998 36.012 486.012 38.5005 480.374 38.3945C479.899 38.3876 479.421 38.483 479.016 38.6611C455.814 38.9902 441.168 40.8227 446.494 42.8203C453.319 45.3951 471.332 44.1947 484.534 44.6748C490.083 44.8763 494.453 44.7883 497.83 44.4854C502.342 47.2872 502.778 48.6648 497.747 50.7881C495.848 51.5971 495.096 53.2133 496.21 53.8525C501.998 57.1736 498.774 62.0296 500.882 65.9043C501.245 66.5723 501.191 67.5078 501.485 68.2783C495.114 67.93 487.152 67.9986 480.812 68.0752L480.691 68.0439C470.981 67.9823 458.602 67.274 457.874 71.002C457.145 75.2231 472.316 73.9905 479.962 73.8672C486.888 73.7403 496.838 74.0922 503.931 73.6328C503.201 73.9588 502.77 74.2599 502.585 74.5273C500.903 74.7157 499.581 75.4041 499.45 77.5166C499.45 77.5202 499.449 77.5238 499.449 77.5273C498.589 77.4958 497.831 77.4367 497.215 77.3311H497.104C470.14 77.3747 452.127 79.3609 457.945 81.543C462.826 83.3846 473.431 83.2952 483.906 83.2705C483.724 83.3013 483.543 83.3323 483.366 83.3584C482.422 84.359 481.063 84.4029 479.71 84.3604C477.85 88.382 480.02 90.0617 484.712 90.2539L485.304 90.1953L485.861 90.3418C486.856 90.4057 487.829 90.491 488.824 90.5762C489.298 90.4256 489.776 90.298 490.256 90.1885C492.275 90.1438 494.24 90.0612 495.78 90.0371C496.754 90.0198 497.811 90.015 498.919 90.0166C501.252 90.3666 504.076 91.0509 502.454 94.1738L502.401 94.2178C501.739 94.6004 501.049 94.9836 500.386 95.3662C498.627 95.4939 496.839 95.6194 495.08 95.7471C491.968 96.1302 488.826 96.8362 485.714 96.8369C482.321 96.8369 479.943 98.4976 476.601 99.6475C480.301 102.713 484.947 101.842 488.953 102.438C492.448 102.948 496.15 102.609 499.748 102.609H499.754C501.691 102.609 503.68 102.609 505.031 103.948C505.796 104.693 506.709 105.801 506.583 106.631C506.378 107.993 504.593 107.613 503.419 107.613H483.489C485.122 111.956 488.367 112.849 492.092 112.955C495.689 113.04 499.315 112.847 502.886 113.038C504.06 113.101 505.848 112.449 506.383 114.427C507.044 116.808 504.166 116.537 503.373 117.726C501.383 120.683 503.164 116.24 501.967 117.236C501.559 117.598 500.31 117.176 499.671 117.451C495.844 119.155 492.471 121.643 487.7 121.537C486.501 121.517 485.277 122.391 485.761 123.731C486.221 125.029 487.674 124.945 488.923 124.987C493.542 125.157 497.936 124.348 502.325 127.52C506.279 130.394 506.712 131.781 502.401 133.932C500.794 134.74 500.158 136.356 501.1 136.995C502.454 137.914 503.224 138.951 503.668 140.051L480.752 140.03C480.281 140.094 479.78 140.181 479.308 140.245C478.278 141.246 476.796 141.29 475.321 141.247C473.291 145.269 475.659 146.949 480.778 147.142L481.423 147.083L482.03 147.229C483.115 147.293 484.178 147.379 485.263 147.464C488.771 146.442 492.475 146.4 496.01 146.868C498.598 147.209 501.963 147.828 500.131 151.061L500.074 151.104C499.351 151.487 498.598 151.871 497.876 152.254C495.957 152.382 494.006 152.507 492.087 152.635C488.693 153.018 485.265 153.724 481.871 153.725C478.169 153.725 475.574 155.384 471.928 156.534C475.965 159.6 481.033 158.729 485.404 159.325C489.217 159.836 493.255 159.496 497.179 159.496H497.187C499.299 159.496 501.47 159.496 502.943 160.835C503.778 161.58 504.774 162.688 504.636 163.519C504.414 164.881 502.466 164.501 501.185 164.501H479.442C481.224 168.844 484.765 169.736 488.829 169.843C492.753 169.928 496.708 169.734 500.604 169.926C501.884 169.988 503.834 169.336 504.418 171.313C505.14 173.695 502 173.423 501.134 174.612C498.964 177.571 500.907 173.128 499.601 174.124C499.156 174.486 497.793 174.063 497.096 174.339C492.921 176.042 489.242 178.531 484.037 178.425C482.729 178.404 481.393 179.279 481.921 180.619C482.423 181.916 484.008 181.833 485.372 181.875C490.41 182.045 495.203 181.234 499.991 184.406C504.305 187.281 504.777 188.668 500.074 190.818C498.321 191.627 497.627 193.244 498.656 193.883C499.11 194.165 499.502 194.459 499.844 194.762C496.53 194.736 492.977 194.828 489.724 194.849L489.602 194.879C476.859 194.725 457.562 194.602 457.803 197.837C458.167 201.627 478.679 200.456 490.452 200.672C490.84 200.678 491.248 200.688 491.671 200.699C491.079 200.869 490.752 201.161 490.863 201.65C491.141 202.962 493.692 203.934 500.418 203.629C501.022 203.601 501.65 203.585 502.293 203.575C502.397 204.387 502.589 205.179 502.968 205.935C503.219 206.435 503.255 207.087 503.371 207.706C503.331 208.021 503.307 208.338 503.288 208.657C500.981 208.664 498.588 208.73 496.367 208.747L496.267 208.777C485.841 208.623 470.053 208.501 470.251 211.735C470.548 215.525 487.33 214.355 496.962 214.57C498.497 214.601 500.403 214.697 502.396 214.764C501.912 215.729 501.137 216.64 499.877 217.457C498.893 218.096 499.557 219.712 501.237 220.521C505.744 222.671 505.292 224.058 501.158 226.933C496.57 230.105 491.976 229.295 487.148 229.465C485.841 229.507 484.322 229.423 483.841 230.721C483.335 232.061 484.615 232.935 485.868 232.915C490.856 232.809 494.382 235.298 498.383 237.001C499.051 237.277 500.357 236.855 500.784 237.216C502.035 238.212 500.174 233.769 502.253 236.727C503.083 237.916 506.093 237.645 505.401 240.026C504.841 242.004 502.973 241.352 501.746 241.414C498.012 241.606 494.221 241.412 490.46 241.497C486.566 241.604 483.173 242.496 481.465 246.839H502.302C503.53 246.839 505.395 246.459 505.609 247.821C505.741 248.651 504.787 249.759 503.987 250.504C502.575 251.843 500.495 251.844 498.47 251.844H498.463C494.703 251.844 490.832 251.504 487.178 252.015C486.504 252.111 485.811 252.166 485.109 252.208C481.265 251.132 473.393 250.38 463.522 250.354H463.455C460.098 251.314 449.693 248.652 450.364 252.602C450.767 255.133 454.459 257.009 464.193 256.42C468.462 256.161 473.57 256.39 478.013 256.253C479.858 256.996 481.627 257.615 483.793 257.615C487.046 257.616 490.33 258.322 493.584 258.705C495.423 258.833 497.291 258.958 499.13 259.086C499.823 259.468 500.545 259.852 501.237 260.234L501.293 260.278C503.049 263.511 499.823 264.131 497.343 264.472C493.955 264.94 490.405 264.898 487.043 263.876C486.003 263.961 484.985 264.046 483.945 264.11L483.364 264.257L482.746 264.198C477.84 264.39 475.571 266.07 477.516 270.092C478.93 270.049 480.35 270.094 481.336 271.094C481.789 271.158 482.268 271.246 482.72 271.31L499.397 271.293C499.306 271.579 499.246 271.904 499.223 272.271C499.14 273.786 499.709 274.596 500.585 275.01C497.486 274.975 494.302 275.004 491.545 275.036L491.459 275.015C484.502 274.972 475.632 274.479 475.109 277.071C474.885 278.33 476.756 278.89 479.399 279.114C478.142 282.594 480.324 284.075 484.712 284.255L485.304 284.196L485.861 284.343C486.856 284.407 487.829 284.492 488.824 284.577C492.039 283.555 495.435 283.512 498.675 283.98C501.047 284.321 504.133 284.941 502.454 288.174L502.401 288.218C501.739 288.6 501.049 288.984 500.386 289.366C498.627 289.494 496.839 289.62 495.08 289.748C491.968 290.131 488.826 290.837 485.714 290.838C482.321 290.838 479.943 292.498 476.601 293.647C480.301 296.713 484.947 295.842 488.953 296.438C492.448 296.949 496.15 296.609 499.748 296.609H499.754C501.691 296.609 503.68 296.609 505.031 297.948C505.796 298.693 506.709 299.802 506.583 300.632C506.378 301.994 504.593 301.614 503.419 301.614H483.489C483.531 301.727 483.575 301.836 483.62 301.944L478.417 301.94C477.945 302.004 477.444 302.092 476.972 302.156C475.942 303.157 474.46 303.2 472.985 303.157C470.955 307.179 473.323 308.86 478.442 309.052L479.087 308.993L479.694 309.14C480.779 309.204 481.842 309.289 482.927 309.374C486.435 308.352 490.139 308.31 493.674 308.778C496.031 309.089 499.031 309.629 498.165 312.165C496.708 312.886 495.282 313.656 493.78 314.279C492.436 314.368 491.086 314.456 489.751 314.545C486.357 314.928 482.929 315.634 479.535 315.635C475.833 315.635 473.238 317.295 469.592 318.445C473.629 321.511 478.698 320.639 483.068 321.235C486.881 321.746 490.919 321.406 494.843 321.406H494.851C496.964 321.406 499.134 321.407 500.607 322.746C501.441 323.491 502.438 324.599 502.3 325.429C502.078 326.791 500.13 326.411 498.849 326.411H477.106C478.888 330.754 482.429 331.646 486.493 331.753C490.417 331.838 494.372 331.644 498.268 331.836C499.549 331.899 501.498 331.246 502.083 333.224C502.804 335.605 499.664 335.334 498.798 336.522C496.628 339.481 498.571 335.038 497.265 336.034C496.82 336.396 495.457 335.973 494.76 336.249C490.585 337.952 486.906 340.441 481.701 340.335C480.393 340.314 479.057 341.189 479.585 342.529C480.087 343.827 481.672 343.743 483.036 343.785C488.074 343.955 492.867 343.145 497.655 346.316C501.969 349.191 502.441 350.578 497.738 352.729C495.985 353.537 495.291 355.154 496.319 355.793C497.403 356.467 497.967 357.224 498.194 358.034C496.052 358.101 493.987 358.209 492.346 358.241C482.714 358.457 465.933 357.286 465.634 361.075C465.436 364.31 481.224 364.187 491.651 364.033L491.751 364.064C493.319 364.077 494.973 364.109 496.622 364.133C496.04 365.6 495.678 367.033 496.319 368.31C496.327 368.325 496.335 368.341 496.343 368.356C496 368.341 495.663 368.325 495.335 368.311C488.727 368.011 486.597 369.786 486.261 371.093C473.53 371.21 453.558 370.142 453.187 374.416C453.043 376.553 459.422 377.448 467.451 377.791H405.067C408.073 377.081 409.513 376.067 409.819 374.916C410.938 370.966 393.596 373.628 388.001 372.668H387.889C360.926 372.712 342.913 374.698 348.731 376.88C349.742 377.261 351 377.558 352.451 377.791H21.022C17.7764 377.791 14.6278 377.376 11.6255 376.598C13.6112 376.574 15.6017 376.541 17.4908 376.529L17.6118 376.499C30.3556 376.653 49.6531 376.776 49.4107 373.541C49.122 370.537 36.1723 370.647 24.9517 370.716C26.7869 370.12 28.2818 369.328 28.0474 368.294C27.8214 367.233 17.0963 365.791 9.4429 365.439C9.39414 364.544 9.00758 363.609 8.51712 362.665C9.30698 362.652 10.0871 362.639 10.8472 362.633L10.9468 362.602C21.3736 362.756 37.163 362.879 36.9644 359.644C36.6658 355.854 19.8837 357.025 10.2515 356.81C9.09169 356.787 7.72021 356.727 6.25931 356.67C6.4066 355.936 6.86175 355.243 7.77982 354.612C8.71052 353.972 8.08198 352.356 6.49466 351.547C2.23484 349.395 2.66198 348.006 6.56986 345.13C10.9062 341.956 15.2478 342.768 19.8111 342.598C21.0457 342.555 22.4821 342.639 22.9361 341.341C23.4143 339.999 22.2045 339.124 21.0201 339.145C16.3054 339.251 12.9729 336.761 9.19095 335.057C8.56014 334.781 7.3256 335.203 6.9224 334.841C5.7407 333.845 7.49951 338.29 5.53372 335.33C4.74956 334.14 1.90561 334.412 2.55911 332.029C3.08844 330.05 4.8544 330.703 6.01419 330.641C9.54322 330.449 13.126 330.643 16.6802 330.558C20.3611 330.451 23.5672 329.557 25.1812 325.212H5.48783C4.32804 325.212 2.5648 325.592 2.36283 324.229C2.23794 323.399 3.14009 322.289 3.89603 321.544C5.23024 320.204 7.19577 320.204 9.10892 320.204H9.11576C12.6701 320.204 16.3281 320.544 19.7818 320.033C21.2712 319.809 22.8502 319.791 24.4351 319.694C28.7157 320.483 35.5189 321.002 43.6929 321.024H43.7593C47.1158 320.064 57.5214 322.726 56.8501 318.776C56.447 316.245 52.7543 314.369 43.021 314.958C38.0393 315.26 31.9159 314.897 27.0386 315.227C25.7703 314.759 24.4757 314.429 22.982 314.429C19.9073 314.428 16.8027 313.722 13.7281 313.339C11.9898 313.211 10.2231 313.085 8.4849 312.957C7.83047 312.574 7.14902 312.19 6.49466 311.808L6.4429 311.764C4.78312 308.529 7.83141 307.909 10.1753 307.568C13.3772 307.1 16.733 307.142 19.9097 308.164C20.8926 308.079 21.8545 307.994 22.8374 307.93L23.3872 307.783L23.9722 307.842C28.6085 307.649 30.7525 305.968 28.9146 301.944C27.5785 301.987 26.236 301.943 25.3033 300.941C24.8757 300.878 24.4221 300.79 23.9947 300.727L2.04251 300.749C2.0312 300.489 2.02237 300.231 2.01517 299.976L1.89798 299.872C2.07473 296.577 2.23859 292.768 2.04251 289.065C5.3619 289.108 9.69399 288.667 11.69 289.068H11.7622C29.0183 289.036 40.5461 287.547 36.8238 285.91C32.4559 283.979 20.9274 284.879 12.4781 284.519C7.53862 284.308 4.05774 284.517 1.71927 284.998C2.45891 281.387 0.981592 277.214 4.78958 274.259C5.61147 273.621 5.05679 272.008 3.65579 271.201C-0.10261 269.056 0.274147 267.671 3.7222 264.804C7.54848 261.639 11.3793 262.448 15.4058 262.278C16.4953 262.236 17.7632 262.32 18.1636 261.025C18.5855 259.688 17.5182 258.815 16.4732 258.836C12.3131 258.942 9.37278 256.459 6.03568 254.76C5.47913 254.485 4.38954 254.906 4.03372 254.545C2.99101 253.552 4.5426 257.985 2.80814 255.033C2.11638 253.847 -0.39228 254.118 0.184115 251.742C0.651123 249.769 2.20862 250.42 3.23197 250.357C6.34575 250.166 9.50707 250.359 12.6431 250.274C15.891 250.168 18.72 249.277 20.1441 244.944H2.7681C1.74469 244.945 0.188343 245.324 0.0102867 243.965C-0.0999028 243.137 0.696797 242.031 1.3638 241.288C2.54114 239.952 4.27519 239.952 5.96341 239.952H5.96927C9.10554 239.952 12.333 240.291 15.3804 239.781C18.8731 239.187 22.9241 240.055 26.1499 236.997C23.2361 235.85 21.1623 234.193 18.2036 234.193C15.4907 234.193 12.7515 233.489 10.0386 233.106C8.50487 232.979 6.94633 232.853 5.41263 232.726C4.83517 232.344 4.23319 231.962 3.65579 231.58L3.6099 231.536C2.14559 228.311 4.83573 227.692 6.90384 227.353C9.72901 226.885 12.6897 226.928 15.4927 227.947C16.3601 227.862 17.2093 227.778 18.0767 227.714L18.5611 227.567L19.0777 227.626C23.1474 227.435 25.0387 225.776 23.4615 221.809C25.9638 221.57 27.7047 221.006 27.4888 219.79C26.967 217.197 18.0964 217.69 11.1392 217.732L11.0523 217.754C9.55836 217.736 7.93837 217.72 6.27494 217.714C6.80168 217.152 7.09695 216.321 7.02884 215.106C6.97597 214.274 6.7629 213.629 6.42728 213.131L20.3189 213.148C20.6959 213.085 21.096 212.997 21.4732 212.934C22.2962 211.935 23.4808 211.891 24.6597 211.934C26.2815 207.921 24.3902 206.246 20.2993 206.054L19.7827 206.112L19.2984 205.966C18.4309 205.902 17.5818 205.816 16.7144 205.731C13.9114 206.751 10.9507 206.794 8.12552 206.327C6.05744 205.987 3.36744 205.368 4.83158 202.144L4.87747 202.1C5.45494 201.718 6.05679 201.335 6.63431 200.953C8.16801 200.826 9.72654 200.701 11.2603 200.573C13.9732 200.191 16.7124 199.487 19.4253 199.486C20.5596 199.486 21.5635 199.241 22.5347 198.876C27.3934 199.193 33.4612 198.838 38.4048 199.138C48.1386 199.727 51.8311 197.851 52.2339 195.319C52.9052 191.37 42.4996 194.031 39.1431 193.071H39.0767C31.4738 193.092 25.0566 193.541 20.7525 194.238C19.339 194.139 17.9302 194.125 16.6021 193.898C13.5547 193.389 10.3272 193.728 7.19095 193.728H7.18509C5.49693 193.728 3.76282 193.727 2.58548 192.392C1.91851 191.648 1.12186 190.543 1.23197 189.715C1.40993 188.356 2.96536 188.734 3.9888 188.734H21.3658C19.9416 184.402 17.1126 183.511 13.8648 183.405C10.7287 183.32 7.56744 183.513 4.45365 183.322C3.4303 183.26 1.87281 183.91 1.40579 181.938C0.829197 179.562 3.33798 179.833 4.02982 178.646C5.76453 175.695 4.21201 180.128 5.2554 179.134C5.61127 178.773 6.70083 179.195 7.25736 178.92C10.5945 177.22 13.5347 174.738 17.6949 174.844C18.7399 174.864 19.807 173.992 19.3853 172.654C18.9848 171.36 17.717 171.444 16.6275 171.401C12.601 171.232 8.77017 172.04 4.94388 168.875C1.49616 166.008 1.11926 164.624 4.87747 162.479C6.27847 161.671 6.83315 160.059 6.01126 159.421C5.18072 158.776 4.60309 158.073 4.19779 157.331C4.70402 157.313 5.18556 157.299 5.63529 157.29C15.2677 157.074 32.0503 158.245 32.3482 154.455C32.5464 151.22 16.7573 151.343 6.3306 151.497L6.23099 151.467C5.24574 151.459 4.22691 151.441 3.19681 151.423C3.195 151.355 3.19402 151.288 3.19193 151.221C3.42343 150.444 3.377 149.486 3.64994 148.807C3.95964 148.037 4.11258 147.228 4.19388 146.4C9.42398 146.439 11.4859 145.542 11.7349 144.37C11.8458 143.881 11.5186 143.589 10.9253 143.419C11.3496 143.408 11.7575 143.398 12.146 143.392C23.919 143.176 44.4304 144.346 44.7945 140.557C45.0372 137.321 25.7395 137.445 12.9956 137.599L12.8745 137.568C10.7621 137.555 8.52292 137.513 6.30521 137.49C6.53993 137.248 6.80268 137.012 7.0972 136.783C7.91893 136.145 7.36426 134.534 5.96341 133.727C2.20477 131.581 2.58175 130.197 6.02982 127.329C9.85611 124.165 13.6869 124.974 17.7134 124.804C18.8029 124.761 20.0698 124.844 20.4702 123.55C20.8919 122.213 19.8257 121.341 18.7808 121.361C14.6208 121.467 11.6803 118.985 8.34329 117.285C7.78677 117.01 6.69717 117.431 6.34134 117.07C5.29795 116.076 6.85047 120.509 5.11576 117.558C4.42377 116.372 1.91406 116.643 2.49076 114.267C2.95781 112.293 4.51624 112.944 5.53958 112.882C8.65343 112.691 11.8146 112.884 14.9507 112.799C18.1986 112.693 21.0276 111.802 22.4517 107.47H5.07474C4.0513 107.47 2.49588 107.848 2.3179 106.489C2.20802 105.661 3.00354 104.556 3.67044 103.812C4.84778 102.477 6.58278 102.477 8.27103 102.477H8.27689C11.4131 102.477 14.6407 102.816 17.688 102.307C21.1806 101.712 25.2308 102.58 28.4566 99.5225C25.5428 98.3753 23.4698 96.7188 20.5113 96.7188C17.7983 96.718 15.0592 96.0131 12.3462 95.6309C10.8125 95.5035 9.25395 95.3783 7.72025 95.251C7.14276 94.8693 6.54084 94.4872 5.96341 94.1055L5.91751 94.0615C4.453 90.8363 7.1433 90.2178 9.21146 89.8779C12.0366 89.4107 14.9974 89.4533 17.8003 90.4727C18.6675 90.3877 19.5161 90.302 20.3833 90.2383L20.8687 90.0928L21.3843 90.1504C25.4544 89.9597 27.3467 88.3009 25.7691 84.333C28.2721 84.0944 30.0137 83.5312 29.7974 82.3145C29.2752 79.7219 20.4048 80.2149 13.4478 80.2578L13.3609 80.2793C12.234 80.2661 11.0351 80.2524 9.80033 80.2441C10.4676 77.2525 8.70347 76.2722 6.39017 75.832L22.6792 75.8496C23.0921 75.7859 23.5299 75.6986 23.9429 75.6348C24.844 74.6343 26.1405 74.5903 27.4312 74.6328C29.2071 70.6109 27.1361 68.9314 22.6568 68.7393L22.0923 68.7979L21.5611 68.6514C20.6113 68.5875 19.6817 68.5012 18.732 68.416C15.6631 69.4377 12.4218 69.4811 9.32865 69.0127C7.06433 68.6721 4.11889 68.052 5.7222 64.8193L5.77298 64.7754C6.40514 64.3928 7.06362 64.0095 7.69583 63.627C9.37514 63.4993 11.0819 63.3737 12.7613 63.2461C15.7316 62.863 18.7304 62.157 21.7007 62.1562C23.0617 62.1562 24.2509 61.8607 25.4097 61.4355C30.1675 61.6923 35.9601 61.376 40.7134 61.6641C50.4472 62.2532 54.1397 60.3769 54.5425 57.8457C55.2137 53.8964 44.8096 56.5584 41.4527 55.5986H41.3853C33.4465 55.62 26.801 56.1099 22.5035 56.8604C21.1753 56.7902 19.8594 56.7496 18.6089 56.5547C15.2726 56.0443 11.7389 56.3838 8.30521 56.3838H8.29935C6.45093 56.3838 4.55126 56.384 3.26224 55.0449C2.53215 54.3002 1.66059 53.1923 1.78079 52.3623C1.97567 50.9999 3.67981 51.3797 4.80033 51.3799H23.8257C22.2666 47.0374 19.1687 46.1446 15.6128 46.0381C12.1793 45.9531 8.71825 46.1466 5.30911 45.9551C4.1887 45.8924 2.48259 46.5442 1.97122 44.5664C1.34003 42.185 4.08786 42.4567 4.84525 41.2676C6.74417 38.3096 5.04472 42.7532 6.18704 41.7568C6.5767 41.3954 7.76917 41.8166 8.37845 41.541C12.0318 39.8377 15.2508 37.3501 19.8052 37.4561C20.9494 37.4766 22.1177 36.6022 21.6558 35.2617C21.2174 33.9643 19.8301 34.0483 18.6372 34.0059C14.2288 33.8357 10.0345 34.6456 5.84525 31.4736C2.0703 28.5994 1.65788 27.2117 5.77298 25.0615C7.30676 24.2526 7.91401 22.6363 7.01419 21.9971C6.0889 21.3396 5.64226 20.6336 5.50736 19.8936C6.38367 19.859 7.20609 19.829 7.9429 19.8145C17.575 19.5988 34.3559 20.7698 34.6548 16.9805C34.8534 13.7453 19.065 13.8684 8.63822 14.0225L8.53861 13.9912C8.2711 13.9891 8.00105 13.9828 7.72904 13.9795C8.3375 12.703 8.69827 11.4355 8.17044 10.2344C8.15166 10.1916 8.12944 10.1479 8.10599 10.1025C13.7719 10.1517 16.0069 8.92254 16.2769 7.32324C16.4193 6.53293 15.898 6.11546 15.0201 5.90918C26.8714 5.73855 46.7434 6.81141 47.1031 3.08203C47.3268 0.0996218 30.9444 -0.0260754 18.399 0.0927734C19.2655 0.0326343 20.1401 6.7874e-06 21.022 0H488.315C488.609 4.87667e-07 488.902 0.00300308 489.195 0.00976562ZM210.91 372.101C210.537 369.019 205.808 369.3 204.579 369.72C201.376 370.812 198.844 373.054 196.013 374.847C199.03 378.32 203.275 376.807 206.478 377.115C209.83 377.423 211.208 374.594 210.91 372.101ZM290.173 374.674C290.935 371.508 275.074 372.432 267.08 372.524C254.771 372.686 233.328 371.808 232.948 374.65C232.694 377.077 252.869 376.985 266.192 376.869L266.319 376.892C276.469 376.938 289.411 377.469 290.173 374.674ZM111.653 370.668C111.28 367.586 106.551 367.867 105.322 368.287C102.119 369.38 99.5866 371.62 96.7564 373.413C99.7729 376.887 104.018 375.374 107.221 375.683C110.573 375.991 111.951 373.161 111.653 370.668ZM156.531 370.965C146.822 370.919 134.442 370.387 133.713 373.183C132.985 376.348 148.157 375.424 155.803 375.332C167.576 375.17 188.088 376.048 188.452 373.206C188.694 370.78 169.397 370.872 156.653 370.987L156.531 370.965ZM319.581 368.292C314.367 368.169 304.023 366.936 304.519 371.157C305.016 374.885 313.457 374.177 320.077 374.115L320.16 374.084C328.849 374.238 342.006 374.361 341.84 371.126C341.591 367.337 327.607 368.508 319.581 368.292ZM464.429 366.837C464.95 363.902 454.08 364.759 448.601 364.845C440.166 364.995 425.47 364.18 425.208 366.815C425.034 369.065 438.861 368.98 447.993 368.873L448.08 368.895C455.037 368.937 463.907 369.43 464.429 366.837ZM60.0865 364.463C52.0927 364.37 36.2319 363.447 36.9927 366.612C37.754 369.408 50.6972 368.877 60.8482 368.831L60.9742 368.808C74.2973 368.923 94.473 369.015 94.2193 366.589C93.8367 363.747 72.394 364.625 60.0865 364.463ZM426.127 354.634C424.194 354.548 420.356 353.691 420.541 356.627C420.725 359.219 423.856 358.726 426.311 358.684L426.342 358.662C429.565 358.769 434.444 358.855 434.383 356.605C434.291 353.97 429.105 354.784 426.127 354.634ZM462.066 351.882C452.333 351.44 448.64 352.847 448.237 354.745C447.566 357.707 457.97 355.712 461.327 356.432H461.394C477.572 356.399 488.38 354.909 484.889 353.272C480.794 351.342 469.987 352.242 462.066 351.882ZM54.3609 353.312C53.9581 351.414 50.2656 350.006 40.5318 350.448C32.6106 350.808 21.8035 349.909 17.7085 351.84C14.2178 353.476 25.0254 354.965 41.2036 354.998H41.271C44.6279 354.278 55.0321 356.275 54.3609 353.312ZM473.08 343.335C473.675 340.17 461.262 341.094 455.006 341.187C445.374 341.348 428.591 340.47 428.293 343.312C428.097 345.738 443.885 345.646 454.311 345.53L454.41 345.554C462.354 345.6 472.484 346.131 473.08 343.335ZM47.5923 339.755C41.3364 339.662 28.9239 338.738 29.5191 341.903C30.1149 344.699 40.2438 344.168 48.188 344.122L48.2867 344.099C58.713 344.214 74.5014 344.307 74.3042 341.881C74.0063 339.039 57.2248 339.917 47.5923 339.755ZM456.079 327.096C454.065 328.056 447.822 325.393 448.224 329.343C448.466 331.874 450.682 333.75 456.522 333.161C461.275 332.681 467.759 333.881 470.216 331.307C472.31 329.125 465.825 327.139 456.119 327.096H456.079ZM54.3736 327.911C54.7761 323.962 48.533 326.624 46.5191 325.664H46.479C36.7724 325.708 30.2876 327.693 32.3814 329.875C34.8383 332.45 41.323 331.25 46.0757 331.729C51.916 332.319 54.1319 330.442 54.3736 327.911ZM445.032 316.604C435.404 316.187 431.752 317.517 431.354 319.31C430.69 322.107 440.981 320.221 444.301 320.901H444.368C460.369 320.87 471.06 319.464 467.607 317.918C463.557 316.094 452.867 316.945 445.032 316.604ZM50.9615 307.127C47.3808 307.847 36.2828 305.851 36.9986 308.812C37.4282 310.711 41.3668 312.119 51.7495 311.677C60.1989 311.317 71.7274 312.216 76.0952 310.285C79.8181 308.649 68.29 307.16 51.0337 307.127H50.9615ZM464.331 306.71C465.046 303.748 453.948 305.744 450.368 305.024H450.295C433.039 305.057 421.512 306.546 425.234 308.183C429.602 310.114 441.13 309.214 449.58 309.574C459.962 310.016 463.901 308.608 464.331 306.71ZM52.4898 294.781C52.2581 291.053 48.3185 291.762 45.229 291.823L45.191 291.854C41.1362 291.699 34.996 291.577 35.0728 294.812C35.1886 298.601 41.7155 297.431 45.4615 297.646C47.8944 297.77 52.7213 299.002 52.4898 294.781ZM454.885 287.93C451.796 287.868 447.856 287.16 447.625 290.888C447.393 295.109 452.221 293.877 454.654 293.754C458.4 293.538 464.926 294.708 465.042 290.919C465.119 287.684 458.978 287.807 454.923 287.961L454.885 287.93ZM32.2183 274.319C22.5087 274.258 10.1282 273.549 9.39994 277.277C8.67208 281.498 23.8435 280.266 31.4898 280.143C43.2627 279.927 63.7741 281.097 64.1382 277.308C64.3793 274.073 45.0827 274.197 32.3394 274.351L32.2183 274.319ZM507.251 275.229C506.833 275.202 506.402 275.179 505.962 275.157C506.062 275.15 506.159 275.141 506.251 275.137C506.568 275.118 506.905 275.112 507.255 275.109C507.254 275.149 507.253 275.189 507.251 275.229ZM471.255 270.735C470.826 268.837 466.888 267.429 456.505 267.871C448.056 268.231 436.528 267.331 432.16 269.262C428.436 270.898 439.964 272.388 457.221 272.421H457.293C460.873 271.701 471.97 273.697 471.255 270.735ZM36.9634 253.903C29.0192 253.857 18.8903 253.326 18.2945 256.122C17.6991 259.288 30.1117 258.363 36.3677 258.271C46.0001 258.109 62.7817 258.987 63.0796 256.145C63.2764 253.719 47.4893 253.811 37.063 253.927L36.9634 253.903ZM54.5093 244.508C54.2675 241.977 52.0522 240.1 46.2124 240.689C41.4597 241.17 34.9741 239.969 32.5171 242.544C30.4229 244.726 36.908 246.712 46.6148 246.756H46.6548C48.6687 245.796 54.9121 248.457 54.5093 244.508ZM461.138 239.649C455.298 239.06 453.082 240.937 452.84 243.468C452.438 247.417 458.681 244.756 460.695 245.716H460.735C470.442 245.672 476.927 243.686 474.833 241.504C472.376 238.929 465.891 240.129 461.138 239.649ZM49.6226 229.194C39.4716 229.148 26.5284 228.617 25.7671 231.413C25.0058 234.579 40.8669 233.655 48.8609 233.562C61.1686 233.401 82.6119 234.279 82.9937 231.437C83.2475 229.01 63.0727 229.102 49.7495 229.218L49.6226 229.194ZM477.696 229.475C477.1 226.678 466.97 227.21 459.026 227.256L458.927 227.279C448.5 227.164 432.711 227.072 432.91 229.498C433.209 232.34 449.991 231.462 459.623 231.624C465.879 231.716 478.291 232.64 477.696 229.475ZM465.944 216.38C462.587 217.1 452.182 215.104 452.853 218.065C453.256 219.964 456.948 221.372 466.682 220.93C474.603 220.57 485.412 221.469 489.506 219.538C492.995 217.902 482.188 216.413 466.01 216.38H465.944ZM47.1333 202.42C36.7512 201.978 32.8124 203.385 32.3824 205.283C31.6663 208.245 42.7646 206.25 46.3452 206.97H46.4175C63.6741 206.937 75.2025 205.447 71.479 203.811C67.1111 201.879 55.5827 202.78 47.1333 202.42ZM49.7564 186.188C49.5147 183.656 47.2987 181.78 41.4585 182.369C36.7058 182.849 30.2211 181.649 27.7642 184.224C25.6698 186.406 32.1549 188.392 41.8618 188.436H41.9019C43.9158 187.475 50.1592 190.137 49.7564 186.188ZM468.735 171.936C465.646 171.874 461.707 171.166 461.475 174.894C461.243 179.115 466.07 177.883 468.503 177.76C472.249 177.544 478.776 178.714 478.892 174.925C478.969 171.69 472.829 171.813 468.774 171.967L468.735 171.936ZM43.5718 169.974C35.6277 169.927 25.4991 169.396 24.9029 172.192C24.307 175.358 36.72 174.434 42.9761 174.342C52.6083 174.18 69.3892 175.058 69.688 172.216C69.8866 169.789 54.0973 169.882 43.6704 169.997L43.5718 169.974ZM49.7437 160.783C50.4138 157.822 40.0092 159.818 36.6529 159.098H36.5865C20.4086 159.13 9.60037 160.62 13.0904 162.257C17.1852 164.188 27.9933 163.287 35.9146 163.647C45.6484 164.089 49.3409 162.682 49.7437 160.783ZM464.823 153C464.45 149.919 459.721 150.198 458.492 150.618C455.289 151.711 452.757 153.952 449.926 155.745C452.943 159.219 457.188 157.707 460.391 158.015C463.743 158.323 465.121 155.493 464.823 153ZM56.232 145.267C46.081 145.22 33.1378 144.689 32.3765 147.485C31.616 150.651 47.4765 149.726 55.4702 149.634C67.7783 149.472 89.2224 150.35 89.6031 147.508C89.8541 145.082 69.6812 145.175 56.3589 145.29L56.232 145.267ZM491.001 131.004C490.387 128.412 479.952 128.904 471.767 128.947L471.665 128.969C460.922 128.862 444.656 128.776 444.859 131.025C445.166 133.661 462.456 132.847 472.38 132.997C478.826 133.083 491.615 133.94 491.001 131.004ZM47.232 117.613C47.0002 113.885 43.0616 114.594 39.9722 114.655L39.9331 114.687C35.8783 114.532 29.7387 114.409 29.816 117.645C29.9323 121.434 36.4578 120.263 40.2036 120.479C42.6366 120.602 47.4637 121.834 47.232 117.613ZM481.02 114.038C478.004 110.564 473.758 112.078 470.555 111.77C467.204 111.461 465.826 114.29 466.124 116.783C466.496 119.865 471.226 119.585 472.455 119.165C475.657 118.072 478.19 115.831 481.02 114.038ZM51.7622 81.6904C44.3958 81.6476 35.0032 81.1553 34.4507 83.748C33.8989 86.6834 45.4086 85.8259 51.2095 85.7402C60.141 85.5903 75.7014 86.4047 75.979 83.7695C76.1632 81.5196 61.5225 81.6048 51.854 81.7119L51.7622 81.6904ZM49.441 64.9443C39.0582 64.5025 35.1196 65.9102 34.69 67.8086C33.9739 70.7707 45.0724 68.7742 48.6529 69.4941H48.7242C65.9804 69.4614 77.5091 67.9724 73.7867 66.3359C69.4188 64.4048 57.8903 65.3044 49.441 64.9443ZM495.144 61.6309C494.58 59.7325 489.411 58.3248 475.784 58.7666C464.694 59.1266 449.562 58.2271 443.83 60.1582C438.944 61.7947 454.074 63.2837 476.723 63.3164H476.817C481.516 62.5963 496.083 64.5927 495.144 61.6309ZM472.795 46.4238C467.499 46.3622 460.747 45.6537 460.35 49.3818C459.953 53.6026 468.228 52.3703 472.399 52.2471C478.821 52.0314 490.008 53.2018 490.207 49.4121C490.339 46.1771 479.813 46.3 472.862 46.4541L472.795 46.4238ZM52.065 48.7109C51.8232 46.1799 49.6072 44.3034 43.7671 44.8926C39.0144 45.3725 32.5297 44.1723 30.0728 46.7471C27.9783 48.9291 34.4635 50.9153 44.1704 50.959H44.2105C46.2244 49.9989 52.4678 52.6605 52.065 48.7109ZM45.8804 32.5C37.9363 32.4538 27.8077 31.9228 27.2115 34.7188C26.6156 37.8846 39.0286 36.9606 45.2847 36.8682C54.9169 36.7064 71.6979 37.5842 71.9966 34.7422C72.1952 32.3158 56.4059 32.4079 45.979 32.5234L45.8804 32.5ZM467.786 28.6348C467.544 26.1036 465.328 24.2272 459.488 24.8164C454.735 25.2964 448.25 24.0961 445.793 26.6709C443.699 28.853 450.184 30.8392 459.891 30.8828H459.931C461.945 29.9227 468.188 32.5843 467.786 28.6348ZM52.0523 23.3086C52.7235 20.3465 42.3193 22.3429 38.9624 21.623H38.8951C22.7168 21.6558 11.9092 23.1447 15.3999 24.7812C19.4949 26.7122 30.302 25.8129 38.2232 26.1729C47.957 26.6147 51.6495 25.207 52.0523 23.3086ZM462.781 15.5869C463.721 12.6247 449.154 14.6215 444.455 13.9014H444.361C421.711 13.9341 406.58 15.423 411.467 17.0596C417.2 18.9907 432.331 18.0902 443.42 18.4502C457.047 18.892 462.216 17.4851 462.781 15.5869ZM387.713 14.0947C385.28 14.0023 380.453 13.0783 380.685 16.2441C380.917 19.0402 384.855 18.5091 387.945 18.4629L387.984 18.4395C392.039 18.555 398.178 18.6471 398.101 16.2207C397.985 13.3788 391.459 14.2565 387.713 14.0947ZM116.807 10.0635C113.791 6.58999 109.545 8.10301 106.342 7.79492C102.991 7.48677 101.613 10.3163 101.911 12.8096C102.283 15.8906 107.013 15.6106 108.242 15.1904C111.444 14.0979 113.977 11.8563 116.807 10.0635ZM178.609 9.46094C176.176 9.36846 171.349 8.44456 171.581 11.6104C171.812 14.4063 175.751 13.8754 178.84 13.8291L178.879 13.8057C182.934 13.9212 189.075 14.0133 188.998 11.5869C188.881 8.74492 182.355 9.62269 178.609 9.46094ZM58.5386 7.79297C48.3877 7.74674 35.4454 7.21562 34.6841 10.0117C33.9233 13.1774 49.7841 12.2526 57.7779 12.1602C70.086 11.9984 91.53 12.8765 91.9107 10.0342C92.1615 7.60831 71.9878 7.70087 58.6656 7.81641L58.5386 7.79297ZM288.571 6.97266C285.554 3.49906 281.309 5.01225 278.106 4.7041C274.754 4.39597 273.377 7.22464 273.674 9.71777C274.047 12.7992 278.776 12.5198 280.005 12.0996C283.208 11.0071 285.74 8.76553 288.571 6.97266ZM258.656 6.32031C259.595 3.35819 245.029 5.35485 240.33 4.63477H240.236C217.586 4.6675 202.456 6.15642 207.342 7.79297C213.075 9.72408 228.206 8.82457 239.295 9.18457C252.923 9.62644 258.092 8.21872 258.656 6.32031ZM326.585 3.0918C323.229 3.81183 312.825 1.81566 313.496 4.77734C313.898 6.67574 317.59 8.08344 327.324 7.6416C335.245 7.28156 346.053 8.18201 350.148 6.25098C353.639 4.61442 342.831 3.12454 326.653 3.0918H326.585ZM388.908 3.28613C379.176 3.19369 359.867 2.26969 360.793 5.43555C361.721 8.23155 377.477 7.69954 389.835 7.65332L389.989 7.63086C406.208 7.7464 430.769 7.83851 430.46 5.41211C429.997 2.56985 403.891 3.44789 388.908 3.28613ZM144.953 0.261719C135.221 0.138473 115.912 -1.09419 116.838 3.12695C117.765 6.85513 133.522 6.14658 145.879 6.08496L146.034 6.05371C162.253 6.20776 186.811 6.33142 186.504 3.09668C186.041 -0.693086 159.936 0.477368 144.953 0.261719Z" fill="#BA2A14"/>
</svg>
